<svg width="256" height="256" viewBox="0 0 256 256" fill="none" xmlns="http://www.w3.org/2000/svg">
<rect x="0.125" y="0.125" width="255.75" height="255.75" fill="white" stroke="black" stroke-width="0.25"/>
<rect width="256" height="256" fill="#1D2A73"/>
<rect width="256" height="256" fill="#1D2A73"/>
<path d="M145.636 32V80.125C145.636 90.5885 142.665 98.7005 136.722 104.461C130.816 110.185 122.284 113.047 111.128 113.047C100.227 113.047 91.8417 110.258 85.9719 104.68C80.1386 99.1016 77.2219 91.0807 77.2219 80.6172V32H98.9329V78.9219C98.9329 84.5729 99.9902 88.6745 102.105 91.2266C104.219 93.7786 107.337 95.0547 111.456 95.0547C115.868 95.0547 119.058 93.7969 121.027 91.2812C123.032 88.7292 124.034 84.5729 124.034 78.8125V32H145.636Z" fill="white"/>
<path d="M165.573 102.602C165.573 99.2474 166.558 96.6589 168.527 94.8359C170.532 93.013 173.43 92.1016 177.222 92.1016C180.831 92.1016 183.602 93.013 185.534 94.8359C187.467 96.6589 188.433 99.2474 188.433 102.602C188.433 105.883 187.43 108.453 185.425 110.312C183.456 112.135 180.722 113.047 177.222 113.047C173.613 113.047 170.769 112.135 168.691 110.312C166.613 108.49 165.573 105.919 165.573 102.602Z" fill="white"/>
<path d="M126.495 224.167L122.558 209.183H96.5813L92.5344 224.167H68.8L94.886 143.886H123.706L150.12 224.167H126.495ZM118.073 191.464L114.628 178.339C113.826 175.422 112.842 171.649 111.675 167.019C110.545 162.388 109.797 159.071 109.433 157.065C109.105 158.925 108.448 161.987 107.464 166.253C106.516 170.519 104.383 178.922 101.066 191.464H118.073Z" fill="white"/>
<path d="M165.573 223.839V143.886L188.433 144.214V224.167L165.573 223.839Z" fill="white"/>
</svg>
