<svg width="189" height="44" viewBox="0 0 189 44" fill="none" xmlns="http://www.w3.org/2000/svg">
<path d="M16.8178 44C11.4863 44 7.35042 42.6269 4.41025 39.8806C1.47008 37.1343 0 32.9751 0 27.403V3.10448C0 2.66667 0.117607 2.30846 0.35282 2.02985C0.627236 1.75124 0.980056 1.61194 1.41128 1.61194H6.82119C7.25242 1.61194 7.60524 1.75124 7.87965 2.02985C8.15407 2.30846 8.29128 2.66667 8.29128 3.10448V27.403C8.29128 30.5473 9.01652 32.9154 10.467 34.5075C11.9567 36.0995 14.054 36.8955 16.759 36.8955C19.4639 36.8955 21.5416 36.0995 22.9921 34.5075C24.4818 32.9154 25.2266 30.5473 25.2266 27.403V3.10448C25.2266 2.66667 25.3639 2.30846 25.6383 2.02985C25.9127 1.75124 26.2655 1.61194 26.6967 1.61194H32.1066C32.5379 1.61194 32.8711 1.75124 33.1063 2.02985C33.3807 2.30846 33.5179 2.66667 33.5179 3.10448V27.403C33.5179 32.9751 32.0478 37.1343 29.1077 39.8806C26.2067 42.6269 22.1101 44 16.8178 44Z" fill="#324BD9"/>
<path d="M42.6279 43.403C42.2359 43.403 41.9027 43.2637 41.6282 42.9851C41.3538 42.7065 41.2166 42.3682 41.2166 41.9702V13.791C41.2166 13.3532 41.3538 13.0149 41.6282 12.7761C41.9027 12.4975 42.2359 12.3582 42.6279 12.3582H47.5086C47.9398 12.3582 48.273 12.4975 48.5082 12.7761C48.7827 13.0149 48.9199 13.3532 48.9199 13.791V16.2388C51.3112 13.2537 54.5846 11.7612 58.74 11.7612C62.3466 11.7612 65.2084 12.9552 67.3253 15.3433C69.4422 17.7313 70.5007 21.0149 70.5007 25.194V41.9702C70.5007 42.3682 70.3635 42.7065 70.0891 42.9851C69.8539 43.2637 69.5206 43.403 69.0894 43.403H63.7971C63.4051 43.403 63.0719 43.2637 62.7975 42.9851C62.523 42.7065 62.3858 42.3682 62.3858 41.9702V25.5522C62.3858 23.2438 61.8174 21.4527 60.6805 20.1791C59.5829 18.8657 57.9952 18.209 55.9175 18.209C53.9181 18.209 52.3109 18.8657 51.0956 20.1791C49.8803 21.4925 49.2727 23.2836 49.2727 25.5522V41.9702C49.2727 42.3682 49.1355 42.7065 48.8611 42.9851C48.6258 43.2637 48.2926 43.403 47.8614 43.403H42.6279Z" fill="#324BD9"/>
<path d="M79.1448 7.28358C78.7528 7.28358 78.4195 7.14428 78.1451 6.86567C77.8707 6.58707 77.7335 6.24876 77.7335 5.85075V1.49254C77.7335 1.05473 77.8707 0.696518 78.1451 0.417912C78.4195 0.139304 78.7528 0 79.1448 0H84.5547C84.9859 0 85.3387 0.139304 85.6132 0.417912C85.8876 0.696518 86.0248 1.05473 86.0248 1.49254V5.85075C86.0248 6.24876 85.868 6.58707 85.5544 6.86567C85.2799 7.14428 84.9467 7.28358 84.5547 7.28358H79.1448ZM79.38 43.403C78.988 43.403 78.6548 43.2637 78.3803 42.9851C78.1059 42.7065 77.9687 42.3682 77.9687 41.9702V13.791C77.9687 13.3532 78.1059 13.0149 78.3803 12.7761C78.6548 12.4975 78.988 12.3582 79.38 12.3582H84.3783C84.7703 12.3582 85.1035 12.4975 85.3779 12.7761C85.6524 13.0547 85.7896 13.393 85.7896 13.791V41.9702C85.7896 42.3682 85.6524 42.7065 85.3779 42.9851C85.1035 43.2637 84.7703 43.403 84.3783 43.403H79.38Z" fill="#324BD9"/>
<path d="M104.759 43.403C104.171 43.403 103.72 43.2836 103.407 43.0448C103.093 42.7662 102.838 42.3881 102.642 41.9104L91.5872 14.209C91.548 14.0896 91.5284 13.9104 91.5284 13.6716C91.5284 13.3134 91.646 13.0149 91.8812 12.7761C92.1556 12.4975 92.4496 12.3582 92.7632 12.3582H97.6439C98.428 12.3582 98.9572 12.7363 99.2316 13.4925L106.994 34.3284L114.756 13.4925C114.834 13.2139 114.991 12.9552 115.226 12.7164C115.501 12.4776 115.853 12.3582 116.285 12.3582H121.165C121.518 12.3582 121.812 12.4975 122.047 12.7761C122.283 13.0149 122.4 13.3134 122.4 13.6716C122.4 13.9104 122.381 14.0896 122.341 14.209L111.345 41.9104C110.914 42.9055 110.208 43.403 109.228 43.403H104.759Z" fill="#324BD9"/>
<path d="M125.966 43.403C125.574 43.403 125.241 43.2836 124.966 43.0448C124.731 42.7662 124.613 42.4279 124.613 42.0299V37.9104C124.613 37.5124 124.731 37.1741 124.966 36.8955C125.241 36.6169 125.574 36.4776 125.966 36.4776H130.023C130.415 36.4776 130.729 36.6169 130.964 36.8955C131.239 37.1741 131.376 37.5124 131.376 37.9104V42.0299C131.376 42.4279 131.239 42.7662 130.964 43.0448C130.729 43.2836 130.415 43.403 130.023 43.403H125.966Z" fill="#324BD9"/>
<path d="M144.11 43.403C143.796 43.403 143.522 43.2836 143.287 43.0448C143.052 42.806 142.934 42.5274 142.934 42.209L143.052 41.5522L157.929 2.80597C158.242 2.00995 158.811 1.61194 159.634 1.61194H161.633C162.457 1.61194 163.025 2.00995 163.339 2.80597L178.216 41.5522L178.334 42.209C178.334 42.5274 178.216 42.806 177.981 43.0448C177.746 43.2836 177.471 43.403 177.158 43.403H175.981C175.629 43.403 175.335 43.3035 175.099 43.1045C174.903 42.9055 174.766 42.7065 174.688 42.5075L171.042 32.9552H150.226L146.58 42.5075C146.501 42.7065 146.345 42.9055 146.109 43.1045C145.913 43.3035 145.639 43.403 145.286 43.403H144.11ZM151.637 29.3731H169.631L160.634 5.85075L151.637 29.3731Z" fill="#324BD9"/>
<path d="M186.589 43.403C186.197 43.403 185.883 43.2836 185.648 43.0448C185.413 42.806 185.295 42.4876 185.295 42.0896V2.92537C185.295 2.52736 185.413 2.20896 185.648 1.97015C185.883 1.73134 186.197 1.61194 186.589 1.61194H187.706C188.098 1.61194 188.412 1.73134 188.647 1.97015C188.882 2.20896 189 2.52736 189 2.92537V42.0896C189 42.4876 188.882 42.806 188.647 43.0448C188.412 43.2836 188.098 43.403 187.706 43.403H186.589Z" fill="#324BD9"/>
</svg>
